<svg width="24" height="8" viewBox="0 0 24 8" fill="none" xmlns="http://www.w3.org/2000/svg">
<g clip-path="url(#clip0_11301_9561)">
<path d="M10.1484 4.61328H0V7.99407H10.1484V4.61328Z" fill="#84B740"/>
<path d="M10.1484 0H0V3.3838H10.1484V0Z" fill="#259BD6"/>
<path d="M20.2933 7.30701L20.2481 7.31605C20.0914 7.34618 20.0342 7.35823 19.9197 7.35823C19.6545 7.35823 19.3411 7.22264 19.3411 6.58385C19.3411 6.25541 19.3954 5.8185 19.8895 5.8185H19.8925C19.9769 5.82452 20.0733 5.83356 20.2541 5.8878L20.2933 5.89985V7.30701ZM20.3746 4.12208L20.2933 4.13714V5.31831L20.221 5.29722L20.1999 5.29119C20.1185 5.26709 19.9317 5.21285 19.7509 5.21285C18.7626 5.21285 18.5547 5.96012 18.5547 6.58686C18.5547 7.44562 19.0368 7.93978 19.8775 7.93978C20.233 7.93978 20.4952 7.90362 20.7603 7.81624C21.0044 7.73789 21.0918 7.62641 21.0918 7.38837V3.99854C20.8568 4.04072 20.6127 4.0829 20.3746 4.12208Z" fill="#27292D"/>
<path d="M23.2337 7.32807L23.1915 7.34013L23.0409 7.3793C22.8992 7.41546 22.7727 7.43655 22.6763 7.43655C22.4442 7.43655 22.3056 7.32205 22.3056 7.12619C22.3056 6.99964 22.3629 6.7857 22.7425 6.7857H23.2337V7.32807ZM22.8872 5.19775C22.5829 5.19775 22.2695 5.25199 21.8808 5.37252L21.6277 5.44785L21.712 6.02035L21.9591 5.939C22.2183 5.85463 22.5407 5.80039 22.7817 5.80039C22.8902 5.80039 23.2216 5.80039 23.2216 6.15896V6.31564H22.7606C21.92 6.31564 21.5312 6.58382 21.5312 7.15934C21.5312 7.65048 21.8898 7.94578 22.4925 7.94578C22.6793 7.94578 22.9384 7.90962 23.1614 7.85538L23.1734 7.85237L23.1855 7.85538L23.2608 7.86743C23.4958 7.90962 23.7399 7.9518 23.978 7.997V6.11677C23.978 5.50811 23.6103 5.19775 22.8872 5.19775Z" fill="#27292D"/>
<path d="M17.3821 7.32807L17.34 7.34013L17.1893 7.3793C17.0477 7.41546 16.9241 7.43655 16.8247 7.43655C16.5927 7.43655 16.4541 7.32205 16.4541 7.12619C16.4541 6.99964 16.5113 6.7857 16.888 6.7857H17.3791L17.3821 7.32807ZM17.0386 5.19775C16.7313 5.19775 16.4209 5.25199 16.0322 5.37252L15.7791 5.44785L15.8635 6.02035L16.1106 5.939C16.3697 5.85463 16.6921 5.80039 16.9332 5.80039C17.0416 5.80039 17.3731 5.80039 17.3731 6.15896V6.31564H16.9121C16.0714 6.31564 15.6797 6.58382 15.6797 7.15934C15.6797 7.65048 16.0383 7.94578 16.6439 7.94578C16.8307 7.94578 17.0899 7.90962 17.3128 7.85538L17.3249 7.85237L17.3369 7.85538L17.4093 7.86743C17.6473 7.90962 17.8884 7.9518 18.1264 8.00001V6.11979C18.1294 5.5051 17.7618 5.19775 17.0386 5.19775Z" fill="#27292D"/>
<path d="M14.2092 5.2037C13.8265 5.2037 13.5101 5.33025 13.3926 5.38449L13.3625 5.39955L13.3354 5.37846C13.1726 5.26095 12.9346 5.20068 12.6032 5.20068C12.3109 5.20068 12.0367 5.24287 11.7384 5.33025C11.4822 5.40859 11.3828 5.53213 11.3828 5.76415V7.91255H12.1843V5.92686L12.2235 5.91481C12.3862 5.86057 12.4826 5.85153 12.576 5.85153C12.808 5.85153 12.9256 5.97507 12.9256 6.21613V7.91556H13.715V6.18298C13.715 6.08053 13.6939 6.02027 13.6909 6.00822L13.6638 5.95699L13.718 5.93289C13.8386 5.87865 13.9711 5.85153 14.1097 5.85153C14.2694 5.85153 14.4593 5.91481 14.4593 6.21613V7.91556H15.2457V6.13778C15.2457 5.50803 14.9082 5.2037 14.2092 5.2037Z" fill="#27292D"/>
<path d="M22.6405 2.20565C22.523 2.20565 22.3271 2.1936 22.1734 2.16347L22.1282 2.15443V0.99435C22.1282 0.897928 22.1102 0.837665 22.1072 0.828625L22.0831 0.780414L22.1343 0.759322C22.1463 0.753296 22.1584 0.750282 22.1734 0.744256L22.1825 0.73823C22.2006 0.732203 22.2186 0.726177 22.2367 0.720151C22.2458 0.717137 22.2518 0.714124 22.2578 0.714124C22.4356 0.665913 22.5983 0.67194 22.6706 0.665913H22.6736C23.1648 0.665913 23.222 1.10282 23.222 1.43126C23.219 2.07006 22.9026 2.20565 22.6405 2.20565ZM22.6375 0C22.6315 0 22.6224 0 22.6164 0C22.1554 0 21.6823 0.126554 21.5136 0.373635C21.4232 0.494162 21.3719 0.644821 21.3689 0.822599V2.01883C21.3689 2.12128 21.3478 2.16045 21.3448 2.16949L21.3177 2.22072H19.8623V1.38908H19.8593C19.8412 0.512241 19.323 0.0301318 18.5727 0.0301318H18.4853H17.8405C17.8104 0.244068 17.7863 0.394727 17.7561 0.608663H18.4853C18.868 0.608663 19.0699 0.934087 19.0699 1.43427V2.27194L19.0186 2.24482C19.0096 2.24181 18.9463 2.22072 18.8469 2.22072H17.5874C17.5633 2.38041 17.5331 2.58832 17.5 2.79623H21.3719C21.5045 2.76911 21.6582 2.74501 21.7908 2.72392C21.9866 2.82034 22.3512 2.87156 22.6013 2.87156C23.442 2.87156 23.9874 2.3081 23.9874 1.4403C23.9844 0.581544 23.4571 0.0180791 22.6375 0Z" fill="#27292D"/>
<path d="M15.8544 3.14883H15.8905C16.7312 3.14883 17.1229 2.87162 17.1229 2.18763C17.1229 1.69648 16.7644 1.30477 16.1617 1.30477H15.3873C15.1553 1.30477 15.0167 1.17219 15.0167 0.949211C15.0167 0.798551 15.074 0.611734 15.4536 0.611734H17.147C17.1832 0.391772 17.2013 0.253165 17.2344 0.0332031H15.4747C14.6551 0.0332031 14.2423 0.376706 14.2423 0.949211C14.2423 1.51569 14.6009 1.81098 15.2035 1.81098H15.9779C16.2099 1.81098 16.3485 1.99478 16.3485 2.18763C16.3485 2.31418 16.2913 2.57633 15.9146 2.57633H15.7851L13.3052 2.5703H12.8532C12.4706 2.5703 12.2024 2.35335 12.2024 1.85015V1.50364C12.2024 0.979343 12.4103 0.653919 12.8532 0.653919H13.5885C13.6216 0.430943 13.6427 0.289324 13.6728 0.0784009H12.7568H12.6694C11.9192 0.0784009 11.4009 0.581602 11.3828 1.45844V1.49158V1.85015C11.4009 2.72699 11.9192 3.14582 12.6694 3.14582H12.7568H13.4016L14.7455 3.14883H15.547H15.8544Z" fill="#27292D"/>
</g>
<defs>
<clipPath id="clip0_11301_9561">
<rect width="23.991" height="8" fill="white"/>
</clipPath>
</defs>
</svg>
